<?xml version="1.0" encoding="UTF-8" standalone="no"?>
<!DOCTYPE svg PUBLIC "-//W3C//DTD SVG 1.1//EN" "http://www.w3.org/Graphics/SVG/1.1/DTD/svg11.dtd">
<svg width="100%" height="100%" viewBox="0 0 411 149" version="1.1" xmlns="http://www.w3.org/2000/svg" xmlns:xlink="http://www.w3.org/1999/xlink" xml:space="preserve" xmlns:serif="http://www.serif.com/" style="fill-rule:evenodd;clip-rule:evenodd;stroke-linejoin:round;stroke-miterlimit:2;">
    <g id="logo" transform="matrix(0.769732,0,0,0.644621,-112.612,-120.23)">
        <rect x="146.3" y="186.513" width="533.397" height="229.962" style="fill:none;"/>
        <g id="レイヤー1" transform="matrix(1.29915,0,0,1.5513,146.3,186.513)">
            <g transform="matrix(1,0,0,1,43.1176,-54.6048)">
                <g transform="matrix(112.819,0,0,112.819,79.4155,173.062)">
                    <path d="M0.374,-0.464L0.472,-0.464L0.246,-0.25L0.472,-0L0.377,-0L0.155,-0.247L0.154,-0.247L0.154,-0L0.078,-0L0.078,-0.707L0.154,-0.707L0.154,-0.257L0.155,-0.257L0.374,-0.464Z" style="fill:white;fill-rule:nonzero;"/>
                </g>
                <g transform="matrix(112.819,0,0,112.819,134.338,173.062)">
                    <path d="M0.328,-0.402L0.322,-0.402C0.304,-0.402 0.286,-0.401 0.269,-0.397C0.252,-0.394 0.236,-0.389 0.22,-0.383C0.205,-0.376 0.192,-0.368 0.179,-0.358C0.167,-0.348 0.157,-0.337 0.149,-0.323L0.149,-0L0.073,-0L0.073,-0.464L0.132,-0.464L0.146,-0.39L0.148,-0.39C0.155,-0.402 0.165,-0.413 0.176,-0.424C0.186,-0.434 0.199,-0.443 0.212,-0.451C0.226,-0.459 0.241,-0.465 0.257,-0.469C0.274,-0.474 0.291,-0.476 0.309,-0.476C0.312,-0.476 0.315,-0.476 0.319,-0.476C0.322,-0.476 0.325,-0.475 0.328,-0.475L0.328,-0.402Z" style="fill:white;fill-rule:nonzero;"/>
                </g>
                <g transform="matrix(112.819,0,0,112.819,172.128,173.062)">
                    <path d="M0.078,-0L0.078,-0.464L0.154,-0.464L0.154,-0L0.078,-0ZM0.076,-0.572L0.076,-0.656L0.152,-0.656L0.152,-0.572L0.076,-0.572Z" style="fill:white;fill-rule:nonzero;"/>
                </g>
                <g transform="matrix(112.819,0,0,112.819,198.294,173.062)">
                    <path d="M0.405,-0.236C0.405,-0.263 0.402,-0.288 0.397,-0.309C0.391,-0.331 0.382,-0.349 0.371,-0.364C0.359,-0.379 0.345,-0.391 0.329,-0.399C0.312,-0.407 0.293,-0.411 0.271,-0.411C0.255,-0.411 0.241,-0.409 0.228,-0.405C0.215,-0.401 0.203,-0.395 0.193,-0.389C0.182,-0.382 0.173,-0.375 0.166,-0.368C0.158,-0.36 0.152,-0.354 0.147,-0.348L0.147,-0.105C0.164,-0.089 0.182,-0.076 0.202,-0.066C0.223,-0.057 0.245,-0.052 0.268,-0.052C0.283,-0.052 0.298,-0.055 0.314,-0.06C0.33,-0.066 0.345,-0.075 0.358,-0.089C0.372,-0.103 0.383,-0.122 0.392,-0.146C0.401,-0.169 0.405,-0.2 0.405,-0.236ZM0.484,-0.237C0.484,-0.205 0.481,-0.177 0.475,-0.152C0.468,-0.127 0.46,-0.105 0.45,-0.086C0.439,-0.068 0.427,-0.052 0.413,-0.04C0.399,-0.027 0.384,-0.017 0.369,-0.01C0.354,-0.002 0.339,0.004 0.323,0.007C0.308,0.01 0.293,0.012 0.279,0.012C0.251,0.012 0.226,0.008 0.205,-0.002C0.184,-0.011 0.166,-0.025 0.149,-0.043L0.147,-0.043L0.147,0.227L0.073,0.227L0.073,-0.464L0.13,-0.464L0.146,-0.411L0.148,-0.411C0.152,-0.418 0.158,-0.424 0.164,-0.43C0.171,-0.436 0.18,-0.443 0.191,-0.45C0.202,-0.457 0.216,-0.463 0.232,-0.468C0.247,-0.473 0.265,-0.476 0.283,-0.476C0.309,-0.476 0.334,-0.472 0.359,-0.463C0.383,-0.454 0.404,-0.44 0.423,-0.421C0.441,-0.402 0.456,-0.377 0.468,-0.347C0.479,-0.317 0.484,-0.28 0.484,-0.237Z" style="fill:white;fill-rule:nonzero;"/>
                </g>
                <g transform="matrix(112.819,0,0,112.819,258.174,173.062)">
                    <path d="M0.318,0.001C0.311,0.004 0.301,0.006 0.288,0.008C0.275,0.011 0.259,0.012 0.24,0.012C0.216,0.012 0.195,0.009 0.177,0.003C0.159,-0.003 0.144,-0.011 0.132,-0.023C0.12,-0.034 0.111,-0.048 0.105,-0.063C0.1,-0.079 0.097,-0.097 0.097,-0.117L0.097,-0.399L0.007,-0.399L0.007,-0.464L0.097,-0.464L0.097,-0.591L0.172,-0.591L0.172,-0.464L0.311,-0.464L0.311,-0.399L0.172,-0.399L0.172,-0.128C0.172,-0.118 0.174,-0.108 0.177,-0.099C0.18,-0.09 0.185,-0.082 0.192,-0.075C0.198,-0.068 0.207,-0.063 0.217,-0.059C0.228,-0.056 0.24,-0.054 0.255,-0.054C0.265,-0.054 0.276,-0.055 0.287,-0.056C0.298,-0.058 0.308,-0.06 0.318,-0.063L0.318,0.001Z" style="fill:white;fill-rule:nonzero;"/>
                </g>
                <g transform="matrix(112.819,0,0,112.819,297.341,173.062)">
                    <path d="M0.408,-0.231C0.408,-0.26 0.404,-0.286 0.397,-0.308C0.39,-0.33 0.38,-0.349 0.368,-0.365C0.355,-0.38 0.34,-0.392 0.323,-0.4C0.306,-0.408 0.287,-0.412 0.267,-0.412C0.246,-0.412 0.227,-0.408 0.21,-0.4C0.193,-0.392 0.178,-0.38 0.165,-0.365C0.153,-0.349 0.143,-0.33 0.136,-0.308C0.129,-0.286 0.125,-0.26 0.125,-0.231C0.125,-0.203 0.129,-0.178 0.136,-0.156C0.143,-0.133 0.153,-0.114 0.166,-0.099C0.178,-0.084 0.193,-0.072 0.21,-0.064C0.228,-0.056 0.247,-0.052 0.267,-0.052C0.288,-0.052 0.306,-0.056 0.323,-0.064C0.341,-0.072 0.355,-0.084 0.368,-0.099C0.38,-0.114 0.39,-0.133 0.397,-0.156C0.404,-0.178 0.408,-0.203 0.408,-0.231ZM0.487,-0.231C0.487,-0.195 0.482,-0.162 0.471,-0.132C0.461,-0.102 0.446,-0.076 0.427,-0.055C0.408,-0.034 0.385,-0.017 0.358,-0.005C0.331,0.006 0.301,0.012 0.267,0.012C0.233,0.012 0.202,0.006 0.175,-0.005C0.147,-0.017 0.124,-0.034 0.105,-0.055C0.086,-0.076 0.072,-0.102 0.062,-0.132C0.051,-0.162 0.046,-0.195 0.046,-0.231C0.046,-0.268 0.052,-0.302 0.062,-0.332C0.072,-0.361 0.087,-0.387 0.106,-0.409C0.125,-0.43 0.148,-0.447 0.176,-0.458C0.203,-0.47 0.233,-0.476 0.267,-0.476C0.301,-0.476 0.332,-0.47 0.359,-0.458C0.386,-0.447 0.409,-0.43 0.428,-0.409C0.447,-0.387 0.462,-0.361 0.472,-0.332C0.482,-0.302 0.487,-0.268 0.487,-0.231Z" style="fill:white;fill-rule:nonzero;"/>
                </g>
            </g>
            <g transform="matrix(1,0,0,1,-180.192,-208.669)">
                <path d="M380.831,209.561C380.831,209.561 267.597,220.58 219.838,238.358C212.077,241.247 205.984,244.357 202.198,247.571C199.058,250.237 197.375,253.093 197.069,255.923C196.592,260.347 199.529,265.471 208.206,270.282C232.859,283.95 269.334,292.125 287.78,300.811C291.329,302.483 294.161,304.133 295.959,305.902C297.013,306.939 297.719,307.919 297.437,309.076C297.198,310.058 296.449,311.024 295.306,312.104C293.759,313.567 291.549,315.086 288.621,316.712C273.732,324.983 241.502,335.33 183.206,349.643C181.495,350.063 180.448,351.792 180.867,353.503C181.287,355.213 183.017,356.261 184.727,355.841C243.916,341.309 276.603,330.688 291.72,322.292C299.296,318.084 302.798,314.031 303.638,310.588C304.293,307.9 303.674,305.325 301.788,302.872C299.717,300.177 295.809,297.538 290.499,295.037C272.143,286.394 235.832,278.301 211.301,264.701C208.227,262.997 206.031,261.365 204.677,259.727C203.785,258.649 203.303,257.64 203.414,256.608C203.573,255.138 204.698,253.82 206.328,252.437C209.695,249.579 215.163,246.908 222.065,244.339C269.342,226.74 381.446,215.913 381.446,215.913C383.199,215.743 384.485,214.182 384.315,212.429C384.145,210.676 382.584,209.391 380.831,209.561Z" style="fill:white;"/>
            </g>
            <g transform="matrix(0.617898,0,0,0.617898,43.9444,-92.275)">
                <g transform="matrix(24.8324,0,0,24.8324,561.832,252.672)">
                    <path d="M0.306,-0L0.177,-0L0.177,-0.563L0,-0.563L0,-0.667L0.483,-0.667L0.483,-0.563L0.306,-0.563L0.306,-0Z" style="fill:white;fill-rule:nonzero;"/>
                </g>
                <g transform="matrix(24.8324,0,0,24.8324,573.836,252.672)">
                    <path d="M0.727,-0L0.604,-0L0.604,-0.583L0.42,-0L0.357,-0L0.171,-0.583L0.171,-0L0.073,-0L0.073,-0.667L0.261,-0.667L0.401,-0.237L0.538,-0.667L0.727,-0.667L0.727,-0Z" style="fill:white;fill-rule:nonzero;"/>
                </g>
            </g>
        </g>
    </g>
</svg>
